<svg xmlns="http://www.w3.org/2000/svg" viewBox="0 0 24 24" fill="currentColor">
  <path d="M21,13.5c0,2.2-1.3,4.1-3.2,5H6.2c-1.9-0.9-3.2-2.8-3.2-5c0-1.7,0.8-3.3,2-4.4c0.7-0.6,1.5-1.1,2.4-1.3
    c0.7-0.2,1.4-0.3,2.1-0.3c0.7,0,1.3,0.1,2,0.3c0.5,0.2,1,0.4,1.5,0.6c0.6-0.3,1.3-0.5,2-0.6c0.5-0.1,1-0.2,1.5-0.2
    c2.8,0,5,2.2,5,5V13.5z M11.5,15c0.5,0,1.1-0.2,1.5-0.5c0.6-0.6,0.8-1.5,0.4-2.3c-0.2-0.5-0.7-0.8-1.2-0.9c-0.4-0.1-0.9,0-1.3,0.2
    c-0.4,0.3-0.7,0.7-0.7,1.2c0,0.2,0,0.5,0.1,0.7C10.5,14.3,11,15,11.5,15z M17.1,14.5c0.5,0,1-0.3,1.3-0.8c0.1-0.3,0.2-0.6,0.2-0.9
    c0-0.4-0.1-0.8-0.4-1.1c-0.3-0.3-0.7-0.5-1.1-0.5c-0.4,0-0.8,0.2-1.1,0.5c-0.3,0.3-0.4,0.7-0.4,1.1c0,0.3,0.1,0.6,0.2,0.9
    C16,14.2,16.5,14.5,17.1,14.5z M6.5,14.5c0.5,0,1.1-0.4,1.3-0.9c0.1-0.2,0.1-0.5,0.1-0.7c0-0.5-0.2-0.9-0.6-1.2
    c-0.4-0.3-0.9-0.4-1.3-0.3c-0.5,0.1-0.9,0.4-1.1,0.9c-0.2,0.5-0.1,1,0.2,1.5C5.5,14.2,6,14.5,6.5,14.5z"/>
</svg>
